<svg id="drawing_top" xmlns="http://www.w3.org/2000/svg" version="1.1" xmlns:xlink="http://www.w3.org/1999/xlink" xmlns:svgjs="http://svgjs.com/svgjs" width="100%" height="100%" viewBox="0 0 136 106"><rect width="120" height="100" fill="#dddddd" stroke="#666666" stroke-width="0" fill-opacity="1" x="10" y="3"></rect><line x1="10" y1="3" x2="130" y2="3" stroke-width="0.5" stroke="#666666"></line><line x1="10" y1="103" x2="130" y2="103" stroke-width="0.5" stroke="#666666"></line><line x1="10" y1="3" x2="10" y2="103" stroke-width="0.5" stroke="#666666"></line><line x1="14" y1="3" x2="14" y2="103" stroke-dasharray="3,3" stroke-width="0.5" stroke="#666666"></line><line x1="12" y1="3" x2="12" y2="103" stroke-dasharray="3,3" stroke-width="0.5" stroke="#666666"></line><line x1="39" y1="3" x2="39" y2="103" stroke-width="0.5" stroke="#666666"></line><line x1="43" y1="3" x2="43" y2="103" stroke-dasharray="3,3" stroke-width="0.5" stroke="#666666"></line><line x1="41" y1="3" x2="41" y2="103" stroke-dasharray="3,3" stroke-width="0.5" stroke="#666666"></line><line x1="68" y1="3" x2="68" y2="103" stroke-width="0.5" stroke="#666666"></line><line x1="72" y1="3" x2="72" y2="103" stroke-dasharray="3,3" stroke-width="0.5" stroke="#666666"></line><line x1="70" y1="3" x2="70" y2="103" stroke-dasharray="3,3" stroke-width="0.5" stroke="#666666"></line><line x1="97" y1="3" x2="97" y2="103" stroke-width="0.5" stroke="#666666"></line><line x1="101" y1="3" x2="101" y2="103" stroke-dasharray="3,3" stroke-width="0.5" stroke="#666666"></line><line x1="99" y1="3" x2="99" y2="103" stroke-dasharray="3,3" stroke-width="0.5" stroke="#666666"></line><line x1="126" y1="3" x2="126" y2="103" stroke-width="0.5" stroke="#666666"></line><line x1="130" y1="3" x2="130" y2="103" stroke-dasharray="3,3" stroke-width="0.5" stroke="#666666"></line><line x1="128" y1="3" x2="128" y2="103" stroke-dasharray="3,3" stroke-width="0.5" stroke="#666666"></line></svg>